# xmcd CD database file
#
# Track frame offsets:
#	150
#	14755
#	32962
#	49072
#	68355
#	91110
#	107772
#	126980
#	145972
#	167112
#	186230
#
# Disc length: 2851 seconds
#
# Revision: 3
# Processed by: cddbd v1.5PL3 Copyright (c) Steve Scherf et al.
# Submitted via: CDex 1.50
#
DISCID=980b210b
DTITLE=Megadeth - Countdown to Extinction
DYEAR=1992
DGENRE=Metal
TTITLE0=Skin O' My Teeth
TTITLE1=Symphony of Destruction
TTITLE2=Architecture of Aggression
TTITLE3=Foreclosure of a Dream
TTITLE4=Sweating Bullets
TTITLE5=This Was My Life
TTITLE6=Countdown to Extinction
TTITLE7=High Speed Dirt
TTITLE8=Psychotron
TTITLE9=Captive Honour
TTITLE10=Ashes in Your Mouth
EXTD=YEAR: 1992
EXTT0=
EXTT1=
EXTT2=
EXTT3=
EXTT4=
EXTT5=
EXTT6=
EXTT7=
EXTT8=
EXTT9=
EXTT10=
PLAYORDER=
